<svg width="331" height="215" viewBox="0 0 331 215" fill="none" xmlns="http://www.w3.org/2000/svg">
<path d="M330.5 28.9921V202.464C330.5 208.815 325.351 213.964 319 213.964H12C5.64872 213.964 0.5 208.815 0.5 202.464V28.9921C0.5 22.6408 5.64873 17.4921 12 17.4921H258.76C262.238 17.4921 265.577 16.0499 267.864 13.4087C269.724 11.2619 271.985 8.5487 273.723 6.13921C274.59 4.93606 275.338 3.79492 275.84 2.83015C276.09 2.34831 276.287 1.89607 276.405 1.49251C276.415 1.46034 276.424 1.42808 276.432 1.39574C276.672 1.77539 276.956 2.24721 277.275 2.79338C278.501 4.89434 280.177 7.98252 281.662 10.7676C283.857 14.8856 288.128 17.4921 292.801 17.4921H319C325.351 17.4921 330.5 22.6408 330.5 28.9921Z" fill="white" stroke="#AE88AD"/>
</svg>
